<svg width="63" height="64" viewBox="0 0 63 64" fill="none" xmlns="http://www.w3.org/2000/svg">
<path d="M19.6875 41.8438V6.40625L23.625 8.375L27.5625 6.40625L31.4921 8.375L35.4769 6.40625L39.375 8.375L43.2862 6.40625L47.2159 8.375L51.1875 6.40625L55.125 8.375L59.0625 6.40625V33.9688" stroke="#2B99BB" stroke-width="2.875" stroke-linecap="round" stroke-linejoin="round"/>
<path d="M59.0625 33.9688V47.75C59.0625 50.3607 58.0254 52.8645 56.1793 54.7106C54.3332 56.5566 51.8294 57.5938 49.2187 57.5938M49.2187 57.5938C46.608 57.5938 44.1042 56.5566 42.2581 54.7106C40.4121 52.8645 39.375 50.3607 39.375 47.75V41.8438H5.90622C5.64699 41.8413 5.38988 41.8905 5.14991 41.9886C4.90995 42.0867 4.69194 42.2316 4.50863 42.4149C4.32532 42.5982 4.1804 42.8162 4.08233 43.0562C3.98426 43.2962 3.93501 43.5533 3.93747 43.8125C3.93747 51.6875 4.76697 57.5938 13.7812 57.5938H49.2187Z" stroke="#2B99BB" stroke-width="2.875" stroke-linecap="round" stroke-linejoin="round"/>
<path d="M27.5625 18.2188H51.1875" stroke="#2B99BB" stroke-width="2.875" stroke-linecap="round" stroke-linejoin="round"/>
<path d="M35.4375 28.0625H51.1875" stroke="#2B99BB" stroke-width="2.875" stroke-linecap="round" stroke-linejoin="round"/>
</svg>
