<svg width="70" height="70" viewBox="0 0 70 70" fill="none" xmlns="http://www.w3.org/2000/svg">
<path d="M56.875 30.2488V56.875C56.875 58.6155 56.1836 60.2847 54.9529 61.5154C53.7222 62.7461 52.053 63.4375 50.3125 63.4375H19.6875C17.947 63.4375 16.2778 62.7461 15.0471 61.5154C13.8164 60.2847 13.125 58.6155 13.125 56.875V13.125C13.125 11.3845 13.8164 9.71532 15.0471 8.48461C16.2778 7.2539 17.947 6.5625 19.6875 6.5625H33.1887C34.3487 6.56352 35.4607 7.02513 36.2804 7.84583L55.5946 27.1542C56.0008 27.5606 56.3229 28.0431 56.5426 28.5741C56.7623 29.1051 56.8753 29.6741 56.875 30.2488Z" stroke="#2B99BB" stroke-width="2.875" stroke-linecap="round" stroke-linejoin="round"/>
<path d="M35 7.65625V24.0625C35 25.2228 35.4609 26.3356 36.2814 27.1561C37.1019 27.9766 38.2147 28.4375 39.375 28.4375H55.7813" stroke="#2B99BB" stroke-width="2.875" stroke-linecap="round" stroke-linejoin="round"/>
<path d="M24.0625 39.375H45.9375" stroke="#2B99BB" stroke-width="2.875" stroke-linecap="round" stroke-linejoin="round"/>
<path d="M24.0625 50.3125H45.9375" stroke="#2B99BB" stroke-width="2.875" stroke-linecap="round" stroke-linejoin="round"/>
</svg>
