<svg width="30" height="31" viewBox="0 0 30 31" fill="none" xmlns="http://www.w3.org/2000/svg">
<circle cx="15" cy="15.5" r="15" fill="#2B99BB"/>
<path d="M14.54 22.74C13.5667 22.74 12.6 22.6133 11.64 22.36C10.6933 22.0933 9.88 21.72 9.2 21.24L10.48 18.76C11.0133 19.1467 11.6267 19.4533 12.32 19.68C13.0267 19.9067 13.74 20.02 14.46 20.02C15.2733 20.02 15.9133 19.86 16.38 19.54C16.8467 19.22 17.08 18.7733 17.08 18.2C17.08 17.84 16.9867 17.52 16.8 17.24C16.6133 16.96 16.28 16.7467 15.8 16.6C15.3333 16.4533 14.6733 16.38 13.82 16.38H10.24L10.96 8.5H19.5V11.1H12.12L13.8 9.62L13.3 15.24L11.62 13.76H14.58C15.9667 13.76 17.08 13.9533 17.92 14.34C18.7733 14.7133 19.3933 15.2267 19.78 15.88C20.1667 16.5333 20.36 17.2733 20.36 18.1C20.36 18.9267 20.1533 19.6933 19.74 20.4C19.3267 21.0933 18.6867 21.66 17.82 22.1C16.9667 22.5267 15.8733 22.74 14.54 22.74Z" fill="white"/>
</svg>
