<svg width="35" height="35" viewBox="0 0 35 35" fill="none" xmlns="http://www.w3.org/2000/svg">
<path d="M28.4375 5.46875H6.5625C5.69226 5.46875 4.85766 5.81445 4.24231 6.42981C3.62695 7.04516 3.28125 7.87976 3.28125 8.75V28.4375C3.28125 29.3077 3.62695 30.1423 4.24231 30.7577C4.85766 31.373 5.69226 31.7188 6.5625 31.7188H28.4375C29.3077 31.7188 30.1423 31.373 30.7577 30.7577C31.373 30.1423 31.7188 29.3077 31.7188 28.4375V8.75C31.7188 7.87976 31.373 7.04516 30.7577 6.42981C30.1423 5.81445 29.3077 5.46875 28.4375 5.46875Z" stroke="#2B99BB" stroke-width="2" stroke-linecap="round" stroke-linejoin="round"/>
<path d="M20.2344 17.5C20.6695 17.5 21.0868 17.3271 21.3945 17.0195C21.7021 16.7118 21.875 16.2945 21.875 15.8594C21.875 15.4243 21.7021 15.007 21.3945 14.6993C21.0868 14.3916 20.6695 14.2188 20.2344 14.2188C19.7993 14.2188 19.382 14.3916 19.0743 14.6993C18.7666 15.007 18.5938 15.4243 18.5938 15.8594C18.5938 16.2945 18.7666 16.7118 19.0743 17.0195C19.382 17.3271 19.7993 17.5 20.2344 17.5Z" fill="#2B99BB"/>
<path d="M25.7031 17.5C26.1382 17.5 26.5555 17.3271 26.8632 17.0195C27.1709 16.7118 27.3438 16.2945 27.3438 15.8594C27.3438 15.4243 27.1709 15.007 26.8632 14.6993C26.5555 14.3916 26.1382 14.2188 25.7031 14.2188C25.268 14.2188 24.8507 14.3916 24.543 14.6993C24.2353 15.007 24.0625 15.4243 24.0625 15.8594C24.0625 16.2945 24.2353 16.7118 24.543 17.0195C24.8507 17.3271 25.268 17.5 25.7031 17.5Z" fill="#2B99BB"/>
<path d="M20.2344 22.9688C20.6695 22.9688 21.0868 22.7959 21.3945 22.4882C21.7021 22.1805 21.875 21.7632 21.875 21.3281C21.875 20.893 21.7021 20.4757 21.3945 20.168C21.0868 19.8604 20.6695 19.6875 20.2344 19.6875C19.7993 19.6875 19.382 19.8604 19.0743 20.168C18.7666 20.4757 18.5938 20.893 18.5938 21.3281C18.5938 21.7632 18.7666 22.1805 19.0743 22.4882C19.382 22.7959 19.7993 22.9688 20.2344 22.9688Z" fill="#2B99BB"/>
<path d="M25.7031 22.9688C26.1382 22.9688 26.5555 22.7959 26.8632 22.4882C27.1709 22.1805 27.3438 21.7632 27.3438 21.3281C27.3438 20.893 27.1709 20.4757 26.8632 20.168C26.5555 19.8604 26.1382 19.6875 25.7031 19.6875C25.268 19.6875 24.8507 19.8604 24.543 20.168C24.2353 20.4757 24.0625 20.893 24.0625 21.3281C24.0625 21.7632 24.2353 22.1805 24.543 22.4882C24.8507 22.7959 25.268 22.9688 25.7031 22.9688Z" fill="#2B99BB"/>
<path d="M9.29688 22.9688C9.732 22.9688 10.1493 22.7959 10.457 22.4882C10.7646 22.1805 10.9375 21.7632 10.9375 21.3281C10.9375 20.893 10.7646 20.4757 10.457 20.168C10.1493 19.8604 9.732 19.6875 9.29688 19.6875C8.86175 19.6875 8.44445 19.8604 8.13678 20.168C7.8291 20.4757 7.65625 20.893 7.65625 21.3281C7.65625 21.7632 7.8291 22.1805 8.13678 22.4882C8.44445 22.7959 8.86175 22.9688 9.29688 22.9688Z" fill="#2B99BB"/>
<path d="M14.7656 22.9688C15.2007 22.9688 15.618 22.7959 15.9257 22.4882C16.2334 22.1805 16.4063 21.7632 16.4063 21.3281C16.4063 20.893 16.2334 20.4757 15.9257 20.168C15.618 19.8604 15.2007 19.6875 14.7656 19.6875C14.3305 19.6875 13.9132 19.8604 13.6055 20.168C13.2979 20.4757 13.125 20.893 13.125 21.3281C13.125 21.7632 13.2979 22.1805 13.6055 22.4882C13.9132 22.7959 14.3305 22.9688 14.7656 22.9688Z" fill="#2B99BB"/>
<path d="M9.29688 28.4375C9.732 28.4375 10.1493 28.2647 10.457 27.957C10.7646 27.6493 10.9375 27.232 10.9375 26.7969C10.9375 26.3618 10.7646 25.9445 10.457 25.6368C10.1493 25.3291 9.732 25.1562 9.29688 25.1562C8.86175 25.1562 8.44445 25.3291 8.13678 25.6368C7.8291 25.9445 7.65625 26.3618 7.65625 26.7969C7.65625 27.232 7.8291 27.6493 8.13678 27.957C8.44445 28.2647 8.86175 28.4375 9.29688 28.4375Z" fill="#2B99BB"/>
<path d="M14.7656 28.4375C15.2007 28.4375 15.618 28.2647 15.9257 27.957C16.2334 27.6493 16.4063 27.232 16.4063 26.7969C16.4063 26.3618 16.2334 25.9445 15.9257 25.6368C15.618 25.3291 15.2007 25.1562 14.7656 25.1562C14.3305 25.1562 13.9132 25.3291 13.6055 25.6368C13.2979 25.9445 13.125 26.3618 13.125 26.7969C13.125 27.232 13.2979 27.6493 13.6055 27.957C13.9132 28.2647 14.3305 28.4375 14.7656 28.4375Z" fill="#2B99BB"/>
<path d="M20.2344 28.4375C20.6695 28.4375 21.0868 28.2647 21.3945 27.957C21.7021 27.6493 21.875 27.232 21.875 26.7969C21.875 26.3618 21.7021 25.9445 21.3945 25.6368C21.0868 25.3291 20.6695 25.1562 20.2344 25.1562C19.7993 25.1562 19.382 25.3291 19.0743 25.6368C18.7666 25.9445 18.5938 26.3618 18.5938 26.7969C18.5938 27.232 18.7666 27.6493 19.0743 27.957C19.382 28.2647 19.7993 28.4375 20.2344 28.4375Z" fill="#2B99BB"/>
<path d="M8.75 3.28125V5.46875" stroke="#2B99BB" stroke-width="2" stroke-linecap="round" stroke-linejoin="round"/>
<path d="M26.25 3.28125V5.46875" stroke="#2B99BB" stroke-width="2" stroke-linecap="round" stroke-linejoin="round"/>
<path d="M31.7188 10.9375H3.28125" stroke="#2B99BB" stroke-width="2" stroke-linecap="round" stroke-linejoin="round"/>
</svg>
