<svg width="17" height="31" viewBox="0 0 17 31" fill="none" xmlns="http://www.w3.org/2000/svg">
<path d="M5.238 10.6907V21.648C5.238 22.4576 5.55961 23.2341 6.13207 23.8065C6.70454 24.379 7.48097 24.7006 8.29056 24.7006C9.10015 24.7006 9.87658 24.379 10.449 23.8065C11.0215 23.2341 11.3431 22.4576 11.3431 21.648L11.3529 7.28629C11.3702 6.5957 11.2491 5.90864 10.9968 5.26557C10.7445 4.62249 10.366 4.03642 9.88369 3.54187C9.40138 3.04731 8.82497 2.65429 8.18842 2.38593C7.55187 2.11758 6.86805 1.97934 6.17725 1.97934C5.48645 1.97934 4.80263 2.11758 4.16608 2.38593C3.52953 2.65429 2.95312 3.04731 2.47081 3.54187C1.98849 4.03642 1.61003 4.62249 1.35771 5.26557C1.10539 5.90864 0.984318 6.5957 1.00163 7.28629V21.7455C1.00163 23.675 1.76811 25.5255 3.13246 26.8898C4.49681 28.2542 6.34727 29.0207 8.27675 29.0207C10.2062 29.0207 12.0567 28.2542 13.421 26.8898C14.7854 25.5255 15.5519 23.675 15.5519 21.7455V8.23367" stroke="#2B99BB" stroke-width="2" stroke-linecap="round"/>
</svg>
