<svg width="30" height="31" viewBox="0 0 30 31" fill="none" xmlns="http://www.w3.org/2000/svg">
<circle cx="15" cy="15.5" r="15" fill="#2B99BB"/>
<path d="M16.04 22.74C14.76 22.74 13.6467 22.4733 12.7 21.94C11.7667 21.4067 11.0467 20.6267 10.54 19.6C10.0333 18.5733 9.78 17.3067 9.78 15.8C9.78 14.1867 10.08 12.82 10.68 11.7C11.2933 10.58 12.1333 9.72667 13.2 9.14C14.28 8.55333 15.52 8.26 16.92 8.26C17.6667 8.26 18.38 8.34 19.06 8.5C19.74 8.66 20.3267 8.9 20.82 9.22L19.62 11.6C19.2333 11.3333 18.82 11.1533 18.38 11.06C17.94 10.9533 17.48 10.9 17 10.9C15.7867 10.9 14.8267 11.2667 14.12 12C13.4133 12.7333 13.06 13.82 13.06 15.26C13.06 15.5 13.06 15.7667 13.06 16.06C13.0733 16.3533 13.1133 16.6467 13.18 16.94L12.28 16.1C12.5333 15.58 12.86 15.1467 13.26 14.8C13.66 14.44 14.1333 14.1733 14.68 14C15.24 13.8133 15.8533 13.72 16.52 13.72C17.4267 13.72 18.24 13.9 18.96 14.26C19.68 14.62 20.2533 15.1267 20.68 15.78C21.12 16.4333 21.34 17.2 21.34 18.08C21.34 19.0267 21.1 19.8533 20.62 20.56C20.1533 21.2533 19.52 21.7933 18.72 22.18C17.9333 22.5533 17.04 22.74 16.04 22.74ZM15.86 20.32C16.3133 20.32 16.7133 20.24 17.06 20.08C17.42 19.9067 17.7 19.66 17.9 19.34C18.1 19.02 18.2 18.6533 18.2 18.24C18.2 17.6 17.98 17.0933 17.54 16.72C17.1133 16.3333 16.54 16.14 15.82 16.14C15.34 16.14 14.92 16.2333 14.56 16.42C14.2 16.5933 13.9133 16.84 13.7 17.16C13.5 17.4667 13.4 17.8267 13.4 18.24C13.4 18.64 13.5 19 13.7 19.32C13.9 19.6267 14.18 19.8733 14.54 20.06C14.9 20.2333 15.34 20.32 15.86 20.32Z" fill="white"/>
</svg>
