<svg width="30" height="30" viewBox="0 0 30 30" fill="none" xmlns="http://www.w3.org/2000/svg">
<circle cx="15" cy="15" r="15" fill="#2B99BB"/>
<path d="M15.32 22.24C14.3467 22.24 13.38 22.1133 12.42 21.86C11.46 21.5933 10.6467 21.22 9.98 20.74L11.24 18.26C11.7733 18.6467 12.3933 18.9533 13.1 19.18C13.8067 19.4067 14.52 19.52 15.24 19.52C16.0533 19.52 16.6933 19.36 17.16 19.04C17.6267 18.72 17.86 18.28 17.86 17.72C17.86 17.1867 17.6533 16.7667 17.24 16.46C16.8267 16.1533 16.16 16 15.24 16H13.76V13.86L17.66 9.44L18.02 10.6H10.68V8H20.48V10.1L16.6 14.52L14.96 13.58H15.9C17.62 13.58 18.92 13.9667 19.8 14.74C20.68 15.5133 21.12 16.5067 21.12 17.72C21.12 18.5067 20.9133 19.2467 20.5 19.94C20.0867 20.62 19.4533 21.1733 18.6 21.6C17.7467 22.0267 16.6533 22.24 15.32 22.24Z" fill="white"/>
</svg>
