<svg width="30" height="30" viewBox="0 0 30 30" fill="none" xmlns="http://www.w3.org/2000/svg">
<circle cx="15" cy="15" r="15" fill="#2B99BB"/>
<path d="M10.66 22V19.9L16.06 14.8C16.4867 14.4133 16.8 14.0667 17 13.76C17.2 13.4533 17.3333 13.1733 17.4 12.92C17.48 12.6667 17.52 12.4333 17.52 12.22C17.52 11.66 17.3267 11.2333 16.94 10.94C16.5667 10.6333 16.0133 10.48 15.28 10.48C14.6933 10.48 14.1467 10.5933 13.64 10.82C13.1467 11.0467 12.7267 11.4 12.38 11.88L10.02 10.36C10.5533 9.56 11.3 8.92667 12.26 8.46C13.22 7.99333 14.3267 7.76 15.58 7.76C16.62 7.76 17.5267 7.93333 18.3 8.28C19.0867 8.61333 19.6933 9.08667 20.12 9.7C20.56 10.3133 20.78 11.0467 20.78 11.9C20.78 12.3533 20.72 12.8067 20.6 13.26C20.4933 13.7 20.2667 14.1667 19.92 14.66C19.5867 15.1533 19.0933 15.7067 18.44 16.32L13.96 20.54L13.34 19.36H21.24V22H10.66Z" fill="white"/>
</svg>
